<svg width="83" height="46" viewBox="0 0 83 46" fill="none" xmlns="http://www.w3.org/2000/svg">
<g clip-path="url(#clip0_309_100)">
<path d="M71.424 26.4393C68.5301 26.4505 66.0149 26.9658 63.9089 27.7276C63.1362 26.5961 62.3634 25.5878 62.2271 24.8484C62.0756 23.9858 61.8937 23.4593 62.0756 22.4286C62.2574 21.3979 63.0756 19.9303 63.0604 19.8182C63.0453 19.7062 62.8786 19.1797 61.2119 19.1685C59.5453 19.1573 58.1059 19.4037 57.9392 19.7286C57.7725 20.0535 57.4543 20.7929 57.2422 21.5547C56.9543 22.675 53.9089 26.6745 52.1665 28.7695C51.6059 27.9517 51.121 27.2347 51.015 26.6633C50.8634 25.8007 50.6816 25.2742 50.8634 24.2435C51.0453 23.2128 51.8634 21.7452 51.8483 21.6332C51.8331 21.5211 51.6665 20.9946 49.9998 20.9834C48.3331 20.9722 46.8937 21.2186 46.7271 21.5435C46.5604 21.8684 46.3786 22.6302 46.0301 23.3696C45.6816 24.109 41.6362 30.7861 40.5756 32.5114C40.0301 33.3964 39.5604 34.1022 39.2271 34.584C39.2271 34.584 39.2119 34.6176 39.1665 34.6736C38.8786 35.0881 38.7119 35.3122 38.7119 35.3122C38.7119 35.3122 38.7119 35.3122 38.7119 35.3234C38.4846 35.6258 38.2422 35.9059 38.121 35.9059C38.0301 35.9059 37.8634 35.0993 38.1513 34.0014C38.7574 31.6823 40.1968 28.0749 40.1816 27.9517C40.1816 27.8845 40.4543 27.2571 39.2422 26.9322C38.0604 26.6073 37.6362 27.1451 37.5301 27.1451C37.424 27.1451 37.3483 27.3355 37.3483 27.3355C37.3483 27.3355 38.6665 23.28 34.8331 23.28C32.4392 23.28 29.1362 25.2181 27.4998 26.9658C26.4695 27.3803 24.2725 28.2654 21.924 29.2177C21.0301 29.5874 20.1059 29.9571 19.2422 30.3044C19.1816 30.2595 19.121 30.2035 19.0604 30.1587C14.424 26.4953 5.84828 23.9074 6.21191 18.9892C6.34828 17.1967 7.18161 12.4914 22.6816 6.77782C35.4392 2.12852 45.5907 3.41688 47.3483 6.27368C49.8634 10.3516 41.9089 17.9249 28.7271 19.0228C23.6968 19.4373 21.0604 18.0033 20.3937 17.4656C19.6968 16.9054 19.5907 16.8718 19.3331 16.9839C18.9089 17.1519 19.1816 17.656 19.3331 17.9473C19.7271 18.7091 21.3483 20.0535 24.0907 20.7145C26.5149 21.2971 32.4089 21.6219 39.5453 19.583C47.5301 17.2975 53.7725 10.9454 51.9392 5.62389C50.1059 0.223992 37.9846 -1.5573 26.5149 1.45634C19.6968 3.24883 12.3028 6.07202 6.98464 9.74664C0.666458 14.1159 -0.333542 17.9137 0.0755493 19.5046C1.54525 25.1509 12.0756 28.8255 16.2877 31.5479C16.0756 31.6375 15.8786 31.716 15.7119 31.7832C13.6059 32.5562 5.57555 35.6595 3.57555 38.942C1.30282 42.6614 3.93919 45.3277 5.68161 45.6862C11.0907 46.7953 16.6513 44.8012 19.6362 41.5075C22.621 38.2138 22.2574 33.9342 20.8786 31.9736C20.8634 31.9512 20.8483 31.9288 20.818 31.9064C21.3634 31.6711 21.924 31.4247 22.4695 31.1894C23.5452 30.7189 24.6059 30.282 25.5149 29.9235C24.9998 30.9653 24.621 32.2089 24.4392 34.0014C24.2119 36.1076 25.3786 38.8411 26.9089 39.9166C27.5907 40.3872 28.3937 40.3984 28.9089 40.3984C30.6968 40.3984 31.4998 39.3005 32.3937 38.0009C33.4846 36.4101 34.4695 34.5615 34.4695 34.5615C34.4695 34.5615 33.2422 39.5581 36.5756 39.5581C37.7877 39.5581 39.0149 38.393 39.5604 37.7992C39.5604 37.8104 39.5604 37.8104 39.5604 37.8104C39.5604 37.8104 39.5907 37.7768 39.6513 37.6984C39.7725 37.5528 39.8483 37.4632 39.8483 37.4632C39.8483 37.4632 39.8483 37.452 39.8483 37.4407C40.3331 36.8134 41.424 35.3906 43.0453 33.0267C45.1362 29.9795 47.1513 26.1704 47.1513 26.1704C47.1513 26.1704 47.3331 27.1003 47.9543 28.6463C48.318 29.5538 49.0756 30.5508 49.6816 31.5143C49.1968 32.0184 48.8937 32.2985 48.8937 32.2985C48.8937 32.2985 48.8937 32.2985 48.9089 32.3097C48.5149 32.6906 48.0907 33.1051 47.621 33.5085C45.9695 34.9649 43.9998 36.6341 43.7271 37.1159C43.4089 37.6872 43.4846 38.1017 44.0907 38.4378C44.5301 38.6843 45.318 38.7179 46.121 38.6843C47.6059 38.6059 48.6513 38.337 49.1665 38.1689C49.9695 37.9561 50.9089 37.6312 51.7877 37.1495C53.4089 36.2644 54.3937 34.9985 54.3028 33.3292C54.2574 32.4105 53.8483 31.4919 53.3483 30.6292C53.4998 30.4724 53.6362 30.3156 53.7877 30.1587C56.3483 27.3916 58.3331 24.3555 58.3331 24.3555C58.3331 24.3555 58.5149 25.2854 59.1362 26.8314C59.4392 27.6156 60.0604 28.467 60.6059 29.2961C58.1968 30.7413 56.7119 32.4218 56.1816 33.5197C55.2271 35.5586 55.9695 36.4773 57.3786 36.6901C58.015 36.791 58.924 36.5669 59.5907 36.354C60.4392 36.1524 61.4392 35.8051 62.3937 35.2897C64.0149 34.4047 65.5756 33.1724 65.4846 31.5031C65.4392 30.7413 65.1665 29.9907 64.7877 29.2625C66.8331 28.6351 69.4695 28.2878 72.8331 28.5791C80.0453 29.2065 81.4695 32.5338 81.1968 33.9342C80.9241 35.3346 79.4089 36.0964 78.9089 36.3316C78.4089 36.5669 78.2422 36.6453 78.2877 36.8134C78.3483 37.0598 78.5907 37.0486 79.015 37.0038C79.6059 36.9254 82.8028 35.8723 82.9392 33.2956C83.1665 30.0019 78.924 26.4057 71.424 26.4393ZM15.7877 40.3087C13.3937 42.2357 10.0604 42.9639 8.62101 42.3477C7.07555 41.6867 7.68161 38.8411 10.621 36.8022C12.4089 35.5586 14.7119 34.4047 16.2422 33.6989C16.5907 33.5421 17.1059 33.318 17.7271 33.0379C17.8331 32.9931 17.8937 32.9707 17.8937 32.9707C18.0149 32.9147 18.1362 32.8587 18.2574 32.8027C19.3331 35.7155 18.3028 38.281 15.7877 40.3087ZM33.2119 31.5479C32.3786 33.0491 30.6362 36.8918 29.5756 36.6789C28.6665 36.4997 28.1059 33.5869 29.3937 30.7077C30.0452 29.2625 31.424 27.5372 32.2271 26.865C33.5301 25.7895 34.9695 25.431 35.318 25.8679C35.7574 26.4393 33.7271 30.6068 33.2119 31.5479ZM47.5907 36.6341C47.2422 36.7686 46.9089 36.8582 46.7574 36.791C46.6513 36.7462 46.9089 36.5669 46.9089 36.5669C46.9089 36.5669 48.7119 35.1329 49.424 34.4831C49.8331 34.1022 50.318 33.6541 50.8331 33.15C50.8331 33.1948 50.8331 33.2508 50.8331 33.2956C50.8331 35.0097 48.5907 36.1636 47.5907 36.6341ZM58.6816 34.7632C58.424 34.6288 58.4695 34.1806 59.3331 32.7802C59.6665 32.2313 60.4543 31.3126 61.8028 30.4276C61.9543 30.7861 62.0604 31.1334 62.0453 31.4583C62.0301 33.6205 59.9392 34.4271 58.6816 34.7632Z" fill="#CD6799"/>
</g>
<defs>
<clipPath id="clip0_309_100">
<rect width="83" height="46" fill="white"/>
</clipPath>
</defs>
</svg>
