<svg width="66" height="48" viewBox="0 0 66 48" fill="none" xmlns="http://www.w3.org/2000/svg">
<g clip-path="url(#clip0_308_87)">
<path d="M7.28075 6.27294C7.15623 3.00941 9.94228 0 13.7081 0H52.2966C56.0625 0 58.8485 3.00941 58.724 6.27294C58.6044 9.40788 58.7597 13.4688 59.8795 16.78C61.0029 20.1014 62.8974 22.2008 66 22.4706V25.5294C62.8974 25.7992 61.0029 27.8986 59.8795 31.22C58.7597 34.5312 58.6044 38.5921 58.724 41.7272C58.8485 44.9906 56.0625 48 52.2966 48H13.7081C9.94228 48 7.15623 44.9906 7.28088 41.7272C7.40038 38.5921 7.24505 34.5312 6.12511 31.22C5.00182 27.8986 3.10277 25.7992 0 25.5294V22.4706C3.10264 22.2008 5.00182 20.1014 6.12511 16.78C7.24505 13.4688 7.40038 9.40788 7.28075 6.27294Z" fill="url(#paint0_linear_308_87)"/>
<g filter="url(#filter0_d_308_87)">
<path d="M34.4312 36.7596C40.5281 36.7596 44.2021 34.0352 44.2021 29.5414C44.2021 26.1446 41.5806 23.6854 37.6882 23.2961V23.1546C40.548 22.73 42.7921 20.3062 42.7921 17.5994C42.7921 13.7426 39.4558 11.2302 34.3717 11.2302H22.9326V36.7596H34.4312ZM27.3811 14.4679H33.2993C36.5166 14.4679 38.3436 15.7771 38.3436 18.1478C38.3436 20.6778 36.2187 22.0931 32.3659 22.0931H27.3811V14.4679ZM27.3811 33.5221V25.1185H33.2595C37.4697 25.1185 39.6543 26.5338 39.6543 29.2938C39.6543 32.0536 37.5294 33.5221 33.5177 33.5221H27.3811Z" fill="url(#paint1_linear_308_87)"/>
<path d="M34.4312 36.7596C40.5281 36.7596 44.2021 34.0352 44.2021 29.5414C44.2021 26.1446 41.5806 23.6854 37.6882 23.2961V23.1546C40.548 22.73 42.7921 20.3062 42.7921 17.5994C42.7921 13.7426 39.4558 11.2302 34.3717 11.2302H22.9326V36.7596H34.4312ZM27.3811 14.4679H33.2993C36.5166 14.4679 38.3436 15.7771 38.3436 18.1478C38.3436 20.6778 36.2187 22.0931 32.3659 22.0931H27.3811V14.4679ZM27.3811 33.5221V25.1185H33.2595C37.4697 25.1185 39.6543 26.5338 39.6543 29.2938C39.6543 32.0536 37.5294 33.5221 33.5177 33.5221H27.3811Z" stroke="white"/>
</g>
</g>
<defs>
<filter id="filter0_d_308_87" x="6.43255" y="-1.26976" width="54.2695" height="58.5294" filterUnits="userSpaceOnUse" color-interpolation-filters="sRGB">
<feFlood flood-opacity="0" result="BackgroundImageFix"/>
<feColorMatrix in="SourceAlpha" type="matrix" values="0 0 0 0 0 0 0 0 0 0 0 0 0 0 0 0 0 0 127 0" result="hardAlpha"/>
<feOffset dy="4"/>
<feGaussianBlur stdDeviation="8"/>
<feColorMatrix type="matrix" values="0 0 0 0 0 0 0 0 0 0 0 0 0 0 0 0 0 0 0.15 0"/>
<feBlend mode="normal" in2="BackgroundImageFix" result="effect1_dropShadow_308_87"/>
<feBlend mode="normal" in="SourceGraphic" in2="effect1_dropShadow_308_87" result="shape"/>
</filter>
<linearGradient id="paint0_linear_308_87" x1="9.80706" y1="1.27035" x2="63.3303" y2="47.8232" gradientUnits="userSpaceOnUse">
<stop stop-color="#9013FE"/>
<stop offset="1" stop-color="#6610F2"/>
</linearGradient>
<linearGradient id="paint1_linear_308_87" x1="24.9444" y1="12.9106" x2="36.1679" y2="33.7085" gradientUnits="userSpaceOnUse">
<stop stop-color="white"/>
<stop offset="1" stop-color="#F1E5FC"/>
</linearGradient>
<clipPath id="clip0_308_87">
<rect width="66" height="48" fill="white"/>
</clipPath>
</defs>
</svg>
