<svg width="58" height="58" viewBox="0 0 58 58" fill="none" xmlns="http://www.w3.org/2000/svg">
<g clip-path="url(#clip0_316_11)">
<path d="M0 0H58V58H0V0Z" fill="#FFDF00"/>
<path d="M38.9613 45.3127C40.1296 47.2203 41.6496 48.6224 44.3378 48.6224C46.5961 48.6224 48.0387 47.4936 48.0387 45.9341C48.0387 44.0652 46.5566 43.4033 44.0708 42.316L42.7083 41.7313C38.7753 40.0558 36.1626 37.9567 36.1626 33.5192C36.1626 29.4316 39.2771 26.3199 44.1445 26.3199C47.6097 26.3199 50.101 27.5259 51.8962 30.6837L47.6521 33.4088C46.7177 31.7333 45.7096 31.0732 44.1445 31.0732C42.5481 31.0732 41.5363 32.0859 41.5363 33.4088C41.5363 35.0439 42.549 35.7058 44.8874 36.7185L46.2499 37.3022C50.8807 39.288 53.4953 41.3124 53.4953 45.8641C53.4953 50.7711 49.6405 53.4593 44.4638 53.4593C39.4022 53.4593 36.1321 51.0473 34.532 47.8858L38.9613 45.3127ZM19.708 45.785C20.5642 47.3041 21.3431 48.5884 23.2156 48.5884C25.0063 48.5884 26.1359 47.8877 26.1359 45.1636V26.6312H31.5861V45.2372C31.5861 50.8806 28.2774 53.4493 23.4476 53.4493C19.0838 53.4493 16.5567 51.1909 15.2715 48.4709L19.708 45.785Z" fill="black"/>
</g>
<defs>
<clipPath id="clip0_316_11">
<rect width="58" height="58" fill="white"/>
</clipPath>
</defs>
</svg>
