<svg width="58" height="54" viewBox="0 0 58 54" fill="none" xmlns="http://www.w3.org/2000/svg">
<path d="M0.00630552 1.78761L4.31202 46.624C4.37666 47.2973 4.93655 47.8714 5.72749 48.0755L28.3842 53.9225C28.7849 54.0258 29.2151 54.0258 29.6157 53.9225L52.2725 48.0755C53.0634 47.8714 53.6233 47.2973 53.688 46.624L57.9937 1.78761C58.0863 0.823656 57.1503 0 55.9625 0H2.0376C0.849814 0 -0.0861442 0.823656 0.00630552 1.78761ZM46.952 15.6988H18.8908L19.7377 22.0554H46.3416L44.6013 40.1769L29.0001 44.203L13.3988 40.1769L12.4896 30.7095H20.6784V35.3534L29.2189 37.2191L37.7084 35.3534L38.367 27.9523H12.2248L10.4892 9.87828H47.5108L46.952 15.6988Z" fill="#FC490B"/>
</svg>
