<svg width="42" height="42" viewBox="0 0 42 42" fill="none" xmlns="http://www.w3.org/2000/svg">
<path d="M10.3267 19.2811C10.6956 16.4843 13.1678 13.9529 17.69 11.7469L18.5044 11.3496L15.1658 5.18576L14.4121 5.56778C4.84895 10.4154 0 17.2663 0 25.9302C0 28.9196 0.948937 31.5015 2.82064 33.6043C4.7186 35.7363 7.02188 36.8174 9.66697 36.8174C12.0437 36.8174 14.059 35.9711 15.657 34.3017C17.2445 32.643 18.0495 30.5828 18.0495 28.1781C18.0495 25.9059 17.2364 23.8808 15.6328 22.1593C14.2184 20.6409 12.4362 19.6749 10.3267 19.2811ZM14.4022 33.1007C13.127 34.4329 11.5781 35.0805 9.66697 35.0805C7.50914 35.0805 5.69412 34.2198 4.11821 32.4493C2.51582 30.6492 1.73685 28.5168 1.73685 25.9302C1.73685 21.9593 2.85502 18.3743 5.0601 15.2749C7.16412 12.3177 10.3199 9.70691 14.4478 7.50651L16.1203 10.5943C11.0901 13.2303 8.5415 16.399 8.5415 20.0217V20.7974L9.31219 20.8847C11.3882 21.1197 13.0398 21.9238 14.3619 23.3431C15.6744 24.7523 16.3126 26.3339 16.3126 28.1781C16.3127 30.1475 15.6877 31.7576 14.4022 33.1007Z" fill="#8643DC"/>
<path d="M33.8958 19.2836C34.2603 16.4845 36.7122 13.9517 41.1981 11.7455L42 11.3512L38.7443 5.18292L37.9832 5.56699C28.3763 10.4144 23.5053 17.2656 23.5053 25.9302C23.5053 28.9215 24.4664 31.5047 26.3617 33.6081C28.2807 35.7375 30.5935 36.8173 33.2364 36.8173C35.6161 36.8173 37.6222 35.9693 39.1989 34.2969C40.7621 32.6389 41.5547 30.5802 41.5547 28.178C41.5547 25.9057 40.7416 23.8806 39.1382 22.1592C37.7267 20.644 35.9659 19.6789 33.8958 19.2836ZM37.9353 33.1054C36.6821 34.4344 35.1452 35.0805 33.2364 35.0805C31.0765 35.0805 29.2498 34.2186 27.652 32.4454C26.0303 30.6458 25.2421 28.5147 25.2421 25.9302C25.2421 21.96 26.3653 18.3755 28.5802 15.2765C30.6936 12.32 33.8629 9.70957 38.0084 7.50941L39.6355 10.5925C34.6416 13.2294 32.1112 16.3987 32.1112 20.0217V20.7957L32.8799 20.8844C34.9133 21.1191 36.5446 21.9234 37.8673 23.3432C39.1799 24.7522 39.8179 26.3337 39.8179 28.1781C39.818 30.15 39.2021 31.7618 37.9353 33.1054Z" fill="#8643DC"/>
</svg>
